<svg width="329" height="80" viewBox="0 0 329 80" fill="none" xmlns="http://www.w3.org/2000/svg">
<path d="M17.74 1.528V0.52H24.724V1.528L22.744 1.78C22.36 1.828 22.132 1.936 22.06 2.104C21.988 2.248 21.952 2.728 21.952 3.544V25H19.972L6.76 3.652V21.976C6.76 22.792 6.796 23.284 6.868 23.452C6.94 23.596 7.168 23.692 7.552 23.74L9.532 23.992V25H2.548V23.992L4.528 23.74C4.912 23.692 5.14 23.596 5.212 23.452C5.284 23.284 5.32 22.792 5.32 21.976V3.544C5.32 2.728 5.284 2.248 5.212 2.104C5.14 1.936 4.912 1.828 4.528 1.78L2.548 1.528V0.52H9.784L20.512 17.764V3.544C20.512 2.728 20.476 2.248 20.404 2.104C20.332 1.936 20.104 1.828 19.72 1.78L17.74 1.528ZM31.8751 23.992V25H24.9271V23.992L26.9071 23.74C27.1711 23.692 27.3631 23.644 27.4831 23.596C27.6031 23.524 27.7111 23.368 27.8071 23.128C27.9031 22.888 28.0351 22.504 28.2031 21.976L35.0791 0.52H38.1751L45.0871 21.976C45.2551 22.504 45.3871 22.888 45.4831 23.128C45.5791 23.368 45.6871 23.524 45.8071 23.596C45.9511 23.644 46.1431 23.692 46.3831 23.74L48.3631 23.992V25H38.4271V23.992L40.4071 23.74C40.7911 23.692 40.9951 23.596 41.0191 23.452C41.0671 23.284 40.9591 22.792 40.6951 21.976L39.3271 17.512H31.0111L29.6071 21.976C29.3671 22.792 29.2591 23.284 29.2831 23.452C29.3071 23.596 29.5111 23.692 29.8951 23.74L31.8751 23.992ZM31.4431 16.252H38.9311L35.2231 4.3L31.4431 16.252ZM64.972 3.544L58.168 25H55.072L48.232 3.544C48.064 2.992 47.932 2.608 47.836 2.392C47.74 2.152 47.632 1.996 47.512 1.924C47.392 1.852 47.2 1.804 46.936 1.78L44.956 1.528V0.52H54.964V1.528L52.984 1.78C52.6 1.828 52.396 1.936 52.372 2.104C52.348 2.248 52.456 2.728 52.696 3.544L58.168 20.716L63.568 3.544C63.832 2.728 63.94 2.248 63.892 2.104C63.868 1.936 63.664 1.828 63.28 1.78L61.3 1.528V0.52H68.212V1.528L66.232 1.78C65.992 1.804 65.812 1.852 65.692 1.924C65.572 1.996 65.464 2.152 65.368 2.392C65.272 2.608 65.14 2.992 64.972 3.544ZM85.9181 18.808H86.9261V25H69.1061V23.992L71.0861 23.74C71.4701 23.692 71.6981 23.596 71.7701 23.452C71.8421 23.284 71.8781 22.792 71.8781 21.976V3.544C71.8781 2.728 71.8421 2.248 71.7701 2.104C71.6981 1.936 71.4701 1.828 71.0861 1.78L69.1061 1.528V0.52H86.5661V6.712H85.5581L84.4061 2.716C84.3341 2.428 84.2501 2.224 84.1541 2.104C84.0821 1.96 83.9261 1.876 83.6861 1.852C83.4461 1.804 83.0381 1.78 82.4621 1.78H76.1981V12.004H80.3021C80.8781 12.004 81.2861 11.992 81.5261 11.968C81.7661 11.92 81.9221 11.836 81.9941 11.716C82.0901 11.572 82.1741 11.356 82.2461 11.068L83.0381 8.152H84.0461V17.116H83.0381L82.2461 14.2C82.1741 13.912 82.0901 13.708 81.9941 13.588C81.9221 13.444 81.7661 13.36 81.5261 13.336C81.2861 13.288 80.8781 13.264 80.3021 13.264H76.1981V23.74H82.8221C83.3981 23.74 83.8061 23.728 84.0461 23.704C84.2861 23.656 84.4421 23.572 84.5141 23.452C84.6101 23.308 84.6941 23.092 84.7661 22.804L85.9181 18.808ZM106.408 24.1C107.848 24.1 109.036 23.764 109.972 23.092C110.932 22.396 111.412 21.316 111.412 19.852C111.412 18.772 111.088 17.872 110.44 17.152C109.816 16.432 108.688 15.832 107.056 15.352L103.708 14.344C102.028 13.84 100.732 12.976 99.8203 11.752C98.9323 10.504 98.4883 8.956 98.4883 7.108C98.4883 5.884 98.7643 4.744 99.3163 3.688C99.8923 2.632 100.756 1.78 101.908 1.132C103.084 0.483998 104.56 0.159998 106.336 0.159998C108.28 0.159998 109.852 0.519998 111.052 1.24C112.252 1.936 113.092 2.848 113.572 3.976C114.052 5.104 114.172 6.316 113.932 7.612L109.792 8.368C110.176 6.136 110.008 4.42 109.288 3.22C108.592 2.02 107.452 1.42 105.868 1.42C104.644 1.42 103.66 1.78 102.916 2.5C102.196 3.22 101.836 4.252 101.836 5.596C101.836 6.7 102.148 7.672 102.772 8.512C103.42 9.352 104.476 10 105.94 10.456L109.288 11.464C111.112 11.992 112.48 12.796 113.392 13.876C114.304 14.932 114.76 16.408 114.76 18.304C114.76 19.648 114.448 20.86 113.824 21.94C113.224 22.996 112.3 23.836 111.052 24.46C109.828 25.06 108.292 25.36 106.444 25.36C105.1 25.36 103.828 25.168 102.628 24.784C101.428 24.376 100.42 23.716 99.6043 22.804C98.8123 21.892 98.3083 20.656 98.0923 19.096L100.504 18.232C100.624 19.768 100.96 20.968 101.512 21.832C102.088 22.672 102.796 23.26 103.636 23.596C104.5 23.932 105.424 24.1 106.408 24.1ZM128.999 25.36C126.791 25.36 124.919 24.892 123.383 23.956C121.847 22.996 120.683 21.652 119.891 19.924C119.099 18.196 118.703 16.18 118.703 13.876V11.608C118.703 9.304 119.051 7.3 119.747 5.596C120.467 3.868 121.535 2.536 122.951 1.6C124.367 0.639998 126.143 0.159998 128.279 0.159998C130.103 0.159998 131.627 0.519998 132.851 1.24C134.075 1.936 134.975 2.872 135.551 4.048C136.151 5.2 136.403 6.46 136.307 7.828L132.095 8.872C132.335 6.472 132.083 4.636 131.339 3.364C130.619 2.068 129.539 1.42 128.099 1.42C126.563 1.42 125.375 2.068 124.535 3.364C123.719 4.66 123.311 6.808 123.311 9.808V15.676C123.311 18.652 123.779 20.8 124.715 22.12C125.651 23.44 127.079 24.1 128.999 24.1C129.791 24.1 130.523 23.956 131.195 23.668C131.891 23.38 132.467 22.888 132.923 22.192C133.403 21.472 133.703 20.464 133.823 19.168L136.415 19.852C136.079 21.196 135.539 22.276 134.795 23.092C134.051 23.908 133.175 24.496 132.167 24.856C131.183 25.192 130.127 25.36 128.999 25.36ZM154.008 1.528V0.52H160.992V1.528L159.012 1.78C158.628 1.828 158.4 1.936 158.328 2.104C158.256 2.248 158.22 2.728 158.22 3.544V16.684C158.22 19.564 157.608 21.736 156.384 23.2C155.184 24.64 153.336 25.36 150.84 25.36C147.936 25.36 145.596 24.568 143.82 22.984C142.044 21.4 141.156 19.12 141.156 16.144V3.544C141.156 2.728 141.12 2.248 141.048 2.104C140.976 1.936 140.748 1.828 140.364 1.78L138.384 1.528V0.52H148.248V1.528L146.268 1.78C145.884 1.828 145.656 1.936 145.584 2.104C145.512 2.248 145.476 2.728 145.476 3.544V16.396C145.476 19.084 145.968 21.028 146.952 22.228C147.936 23.428 149.34 24.028 151.164 24.028C152.94 24.028 154.32 23.464 155.304 22.336C156.288 21.184 156.78 19.324 156.78 16.756V3.544C156.78 2.728 156.744 2.248 156.672 2.104C156.6 1.936 156.372 1.828 155.988 1.78L154.008 1.528ZM183.513 11.608V13.876C183.513 17.572 182.685 20.416 181.029 22.408C179.397 24.376 176.973 25.36 173.757 25.36C170.541 25.36 168.105 24.376 166.449 22.408C164.817 20.416 164.001 17.572 164.001 13.876V11.608C164.001 7.912 164.817 5.08 166.449 3.112C168.105 1.144 170.541 0.159998 173.757 0.159998C176.973 0.159998 179.397 1.144 181.029 3.112C182.685 5.08 183.513 7.912 183.513 11.608ZM178.905 9.808C178.905 7.696 178.725 6.04 178.365 4.84C178.005 3.616 177.441 2.74 176.673 2.212C175.929 1.684 174.957 1.42 173.757 1.42C172.581 1.42 171.609 1.684 170.841 2.212C170.073 2.74 169.509 3.616 169.149 4.84C168.789 6.04 168.609 7.696 168.609 9.808V15.676C168.609 17.764 168.789 19.42 169.149 20.644C169.509 21.868 170.073 22.756 170.841 23.308C171.609 23.836 172.581 24.1 173.757 24.1C174.957 24.1 175.929 23.836 176.673 23.308C177.441 22.756 178.005 21.868 178.365 20.644C178.725 19.42 178.905 17.764 178.905 15.676V9.808ZM203.127 18.808H204.135V25H187.035V23.992L189.015 23.74C189.399 23.692 189.627 23.596 189.699 23.452C189.771 23.284 189.807 22.792 189.807 21.976V3.544C189.807 2.728 189.771 2.248 189.699 2.104C189.627 1.936 189.399 1.828 189.015 1.78L187.035 1.528V0.52H196.899V1.528L194.919 1.78C194.535 1.828 194.307 1.936 194.235 2.104C194.163 2.248 194.127 2.728 194.127 3.544V23.74H200.031C200.607 23.74 201.015 23.728 201.255 23.704C201.495 23.656 201.651 23.572 201.723 23.452C201.819 23.308 201.903 23.092 201.975 22.804L203.127 18.808ZM210.983 23.992V25H204.035V23.992L206.015 23.74C206.279 23.692 206.471 23.644 206.591 23.596C206.711 23.524 206.819 23.368 206.915 23.128C207.011 22.888 207.143 22.504 207.311 21.976L214.187 0.52H217.283L224.195 21.976C224.363 22.504 224.495 22.888 224.591 23.128C224.687 23.368 224.795 23.524 224.915 23.596C225.059 23.644 225.251 23.692 225.491 23.74L227.471 23.992V25H217.535V23.992L219.515 23.74C219.899 23.692 220.103 23.596 220.127 23.452C220.175 23.284 220.067 22.792 219.803 21.976L218.435 17.512H210.119L208.715 21.976C208.475 22.792 208.367 23.284 208.391 23.452C208.415 23.596 208.619 23.692 209.003 23.74L210.983 23.992ZM210.551 16.252H218.039L214.331 4.3L210.551 16.252ZM7.732 77.992V79H0.784V77.992L2.764 77.74C3.028 77.692 3.22 77.644 3.34 77.596C3.46 77.524 3.568 77.368 3.664 77.128C3.76 76.888 3.892 76.504 4.06 75.976L10.936 54.52H14.032L20.944 75.976C21.112 76.504 21.244 76.888 21.34 77.128C21.436 77.368 21.544 77.524 21.664 77.596C21.808 77.644 22 77.692 22.24 77.74L24.22 77.992V79H14.284V77.992L16.264 77.74C16.648 77.692 16.852 77.596 16.876 77.452C16.924 77.284 16.816 76.792 16.552 75.976L15.184 71.512H6.868L5.464 75.976C5.224 76.792 5.116 77.284 5.14 77.452C5.164 77.596 5.368 77.692 5.752 77.74L7.732 77.992ZM7.3 70.252H14.788L11.08 58.3L7.3 70.252ZM53.4042 77.992V79H43.5402V77.992L45.5202 77.74C45.9042 77.692 46.1322 77.596 46.2042 77.452C46.2762 77.284 46.3122 76.792 46.3122 75.976V57.472L39.7242 76.12H35.8722L29.3562 57.58V75.976C29.3562 76.792 29.3922 77.284 29.4642 77.452C29.5362 77.596 29.7642 77.692 30.1482 77.74L32.1282 77.992V79H25.1442V77.992L27.1242 77.74C27.5082 77.692 27.7362 77.596 27.8082 77.452C27.8802 77.284 27.9162 76.792 27.9162 75.976V57.544C27.9162 56.728 27.8802 56.248 27.8082 56.104C27.7362 55.936 27.5082 55.828 27.1242 55.78L25.1442 55.528V54.52H32.7402L39.3282 73.24L46.0242 54.52H53.4042V55.528L51.4242 55.78C51.0402 55.828 50.8122 55.936 50.7402 56.104C50.6682 56.248 50.6322 56.728 50.6322 57.544V75.976C50.6322 76.792 50.6682 77.284 50.7402 77.452C50.8122 77.596 51.0402 77.692 51.4242 77.74L53.4042 77.992ZM72.9196 72.808H73.9276V79H56.1076V77.992L58.0876 77.74C58.4716 77.692 58.6996 77.596 58.7716 77.452C58.8436 77.284 58.8796 76.792 58.8796 75.976V57.544C58.8796 56.728 58.8436 56.248 58.7716 56.104C58.6996 55.936 58.4716 55.828 58.0876 55.78L56.1076 55.528V54.52H73.5676V60.712H72.5596L71.4076 56.716C71.3356 56.428 71.2516 56.224 71.1556 56.104C71.0836 55.96 70.9276 55.876 70.6876 55.852C70.4476 55.804 70.0396 55.78 69.4636 55.78H63.1996V66.004H67.3036C67.8796 66.004 68.2876 65.992 68.5276 65.968C68.7676 65.92 68.9236 65.836 68.9956 65.716C69.0916 65.572 69.1756 65.356 69.2476 65.068L70.0396 62.152H71.0476V71.116H70.0396L69.2476 68.2C69.1756 67.912 69.0916 67.708 68.9956 67.588C68.9236 67.444 68.7676 67.36 68.5276 67.336C68.2876 67.288 67.8796 67.264 67.3036 67.264H63.1996V77.74H69.8236C70.3996 77.74 70.8076 77.728 71.0476 77.704C71.2876 77.656 71.4436 77.572 71.5156 77.452C71.6116 77.308 71.6956 77.092 71.7676 76.804L72.9196 72.808ZM77.403 55.528V54.52H88.275C90.795 54.52 92.739 55.084 94.107 56.212C95.475 57.34 96.159 58.852 96.159 60.748V61.576C96.159 63.016 95.763 64.24 94.971 65.248C94.179 66.256 93.039 66.976 91.551 67.408L96.051 75.976C96.339 76.504 96.555 76.888 96.699 77.128C96.843 77.368 96.975 77.524 97.095 77.596C97.239 77.644 97.431 77.692 97.671 77.74L99.291 77.992V79H92.559L87.123 67.84H84.495V75.976C84.495 76.792 84.531 77.284 84.603 77.452C84.675 77.596 84.903 77.692 85.287 77.74L87.267 77.992V79H77.403V77.992L79.383 77.74C79.767 77.692 79.995 77.596 80.067 77.452C80.139 77.284 80.175 76.792 80.175 75.976V57.544C80.175 56.728 80.139 56.248 80.067 56.104C79.995 55.936 79.767 55.828 79.383 55.78L77.403 55.528ZM88.275 55.78H84.495V66.58H88.275C89.331 66.58 90.135 66.256 90.687 65.608C91.263 64.936 91.551 63.712 91.551 61.936V60.388C91.551 58.612 91.263 57.4 90.687 56.752C90.135 56.104 89.331 55.78 88.275 55.78ZM100.456 55.528V54.52H110.32V55.528L108.34 55.78C107.956 55.828 107.728 55.936 107.656 56.104C107.584 56.248 107.548 56.728 107.548 57.544V75.976C107.548 76.792 107.584 77.284 107.656 77.452C107.728 77.596 107.956 77.692 108.34 77.74L110.32 77.992V79H100.456V77.992L102.436 77.74C102.82 77.692 103.048 77.596 103.12 77.452C103.192 77.284 103.228 76.792 103.228 75.976V57.544C103.228 56.728 103.192 56.248 103.12 56.104C103.048 55.936 102.82 55.828 102.436 55.78L100.456 55.528ZM124.481 68.92V67.912H134.705V68.92L132.725 69.172C132.341 69.22 132.113 69.328 132.041 69.496C131.969 69.64 131.933 70.12 131.933 70.936V79H130.961C130.313 78.328 129.593 77.764 128.801 77.308C128.153 77.884 127.385 78.376 126.497 78.784C125.609 79.168 124.529 79.36 123.257 79.36C121.289 79.36 119.597 78.868 118.181 77.884C116.789 76.876 115.721 75.496 114.977 73.744C114.233 71.968 113.861 69.952 113.861 67.696V65.428C113.861 63.244 114.233 61.312 114.977 59.632C115.721 57.928 116.813 56.596 118.253 55.636C119.693 54.652 121.457 54.16 123.545 54.16C125.513 54.16 127.133 54.52 128.405 55.24C129.701 55.936 130.649 56.872 131.249 58.048C131.849 59.2 132.077 60.46 131.933 61.828L127.721 62.872C127.985 60.472 127.721 58.636 126.929 57.364C126.137 56.068 124.961 55.42 123.401 55.42C120.113 55.42 118.469 58.336 118.469 64.168V69.316C118.469 75.172 120.209 78.1 123.689 78.1C124.457 78.1 125.225 77.944 125.993 77.632C126.785 77.32 127.445 76.864 127.973 76.264V70.936C127.973 70.12 127.937 69.628 127.865 69.46C127.793 69.292 127.565 69.196 127.181 69.172L124.481 68.92ZM156.848 65.608V67.876C156.848 71.572 156.02 74.416 154.364 76.408C152.732 78.376 150.308 79.36 147.092 79.36C143.876 79.36 141.44 78.376 139.784 76.408C138.152 74.416 137.336 71.572 137.336 67.876V65.608C137.336 61.912 138.152 59.08 139.784 57.112C141.44 55.144 143.876 54.16 147.092 54.16C150.308 54.16 152.732 55.144 154.364 57.112C156.02 59.08 156.848 61.912 156.848 65.608ZM152.24 63.808C152.24 61.696 152.06 60.04 151.7 58.84C151.34 57.616 150.776 56.74 150.008 56.212C149.264 55.684 148.292 55.42 147.092 55.42C145.916 55.42 144.944 55.684 144.176 56.212C143.408 56.74 142.844 57.616 142.484 58.84C142.124 60.04 141.944 61.696 141.944 63.808V69.676C141.944 71.764 142.124 73.42 142.484 74.644C142.844 75.868 143.408 76.756 144.176 77.308C144.944 77.836 145.916 78.1 147.092 78.1C148.292 78.1 149.264 77.836 150.008 77.308C150.776 76.756 151.34 75.868 151.7 74.644C152.06 73.42 152.24 71.764 152.24 69.676V63.808ZM186.241 57.544L179.437 79H176.341L169.501 57.544C169.333 56.992 169.201 56.608 169.105 56.392C169.009 56.152 168.901 55.996 168.781 55.924C168.661 55.852 168.469 55.804 168.205 55.78L166.225 55.528V54.52H176.233V55.528L174.253 55.78C173.869 55.828 173.665 55.936 173.641 56.104C173.617 56.248 173.725 56.728 173.965 57.544L179.437 74.716L184.837 57.544C185.101 56.728 185.209 56.248 185.161 56.104C185.137 55.936 184.933 55.828 184.549 55.78L182.569 55.528V54.52H189.481V55.528L187.501 55.78C187.261 55.804 187.081 55.852 186.961 55.924C186.841 55.996 186.733 56.152 186.637 56.392C186.541 56.608 186.409 56.992 186.241 57.544ZM207.187 72.808H208.195V79H190.375V77.992L192.355 77.74C192.739 77.692 192.967 77.596 193.039 77.452C193.111 77.284 193.147 76.792 193.147 75.976V57.544C193.147 56.728 193.111 56.248 193.039 56.104C192.967 55.936 192.739 55.828 192.355 55.78L190.375 55.528V54.52H207.835V60.712H206.827L205.675 56.716C205.603 56.428 205.519 56.224 205.423 56.104C205.351 55.96 205.195 55.876 204.955 55.852C204.715 55.804 204.307 55.78 203.731 55.78H197.467V66.004H201.571C202.147 66.004 202.555 65.992 202.795 65.968C203.035 65.92 203.191 65.836 203.263 65.716C203.359 65.572 203.443 65.356 203.515 65.068L204.307 62.152H205.315V71.116H204.307L203.515 68.2C203.443 67.912 203.359 67.708 203.263 67.588C203.191 67.444 203.035 67.36 202.795 67.336C202.555 67.288 202.147 67.264 201.571 67.264H197.467V77.74H204.091C204.667 77.74 205.075 77.728 205.315 77.704C205.555 77.656 205.711 77.572 205.783 77.452C205.879 77.308 205.963 77.092 206.035 76.804L207.187 72.808ZM220.022 78.1C221.462 78.1 222.65 77.764 223.586 77.092C224.546 76.396 225.026 75.316 225.026 73.852C225.026 72.772 224.702 71.872 224.054 71.152C223.43 70.432 222.302 69.832 220.67 69.352L217.322 68.344C215.642 67.84 214.346 66.976 213.434 65.752C212.546 64.504 212.102 62.956 212.102 61.108C212.102 59.884 212.378 58.744 212.93 57.688C213.506 56.632 214.37 55.78 215.522 55.132C216.698 54.484 218.174 54.16 219.95 54.16C221.894 54.16 223.466 54.52 224.666 55.24C225.866 55.936 226.706 56.848 227.186 57.976C227.666 59.104 227.786 60.316 227.546 61.612L223.406 62.368C223.79 60.136 223.622 58.42 222.902 57.22C222.206 56.02 221.066 55.42 219.482 55.42C218.258 55.42 217.274 55.78 216.53 56.5C215.81 57.22 215.45 58.252 215.45 59.596C215.45 60.7 215.762 61.672 216.386 62.512C217.034 63.352 218.09 64 219.554 64.456L222.902 65.464C224.726 65.992 226.094 66.796 227.006 67.876C227.918 68.932 228.374 70.408 228.374 72.304C228.374 73.648 228.062 74.86 227.438 75.94C226.838 76.996 225.914 77.836 224.666 78.46C223.442 79.06 221.906 79.36 220.058 79.36C218.714 79.36 217.442 79.168 216.242 78.784C215.042 78.376 214.034 77.716 213.218 76.804C212.426 75.892 211.922 74.656 211.706 73.096L214.118 72.232C214.238 73.768 214.574 74.968 215.126 75.832C215.702 76.672 216.41 77.26 217.25 77.596C218.114 77.932 219.038 78.1 220.022 78.1ZM231.489 55.528V54.52H242.325C244.965 54.52 246.933 55.132 248.229 56.356C249.549 57.556 250.209 59.164 250.209 61.18V62.008C250.209 64.024 249.549 65.644 248.229 66.868C246.933 68.092 244.965 68.704 242.325 68.704H238.581V75.976C238.581 76.792 238.617 77.284 238.689 77.452C238.761 77.596 238.989 77.692 239.373 77.74L242.073 77.992V79H231.489V77.992L233.469 77.74C233.853 77.692 234.081 77.596 234.153 77.452C234.225 77.284 234.261 76.792 234.261 75.976V57.544C234.261 56.728 234.225 56.248 234.153 56.104C234.081 55.936 233.853 55.828 233.469 55.78L231.489 55.528ZM242.325 55.78H238.581V67.444H242.325C243.381 67.444 244.185 67.024 244.737 66.184C245.313 65.344 245.601 64.192 245.601 62.728V60.46C245.601 58.996 245.313 57.856 244.737 57.04C244.185 56.2 243.381 55.78 242.325 55.78ZM267.305 55.528V54.52H274.289V55.528L272.309 55.78C271.925 55.828 271.697 55.936 271.625 56.104C271.553 56.248 271.517 56.728 271.517 57.544V70.684C271.517 73.564 270.905 75.736 269.681 77.2C268.481 78.64 266.633 79.36 264.137 79.36C261.233 79.36 258.893 78.568 257.117 76.984C255.341 75.4 254.453 73.12 254.453 70.144V57.544C254.453 56.728 254.417 56.248 254.345 56.104C254.273 55.936 254.045 55.828 253.661 55.78L251.681 55.528V54.52H261.545V55.528L259.565 55.78C259.181 55.828 258.953 55.936 258.881 56.104C258.809 56.248 258.773 56.728 258.773 57.544V70.396C258.773 73.084 259.265 75.028 260.249 76.228C261.233 77.428 262.637 78.028 264.461 78.028C266.237 78.028 267.617 77.464 268.601 76.336C269.585 75.184 270.077 73.324 270.077 70.756V57.544C270.077 56.728 270.041 56.248 269.969 56.104C269.897 55.936 269.669 55.828 269.285 55.78L267.305 55.528ZM287.594 79.36C285.386 79.36 283.514 78.892 281.978 77.956C280.442 76.996 279.278 75.652 278.486 73.924C277.694 72.196 277.298 70.18 277.298 67.876V65.608C277.298 63.304 277.646 61.3 278.342 59.596C279.062 57.868 280.13 56.536 281.546 55.6C282.962 54.64 284.738 54.16 286.874 54.16C288.698 54.16 290.222 54.52 291.446 55.24C292.67 55.936 293.57 56.872 294.146 58.048C294.746 59.2 294.998 60.46 294.902 61.828L290.69 62.872C290.93 60.472 290.678 58.636 289.934 57.364C289.214 56.068 288.134 55.42 286.694 55.42C285.158 55.42 283.97 56.068 283.13 57.364C282.314 58.66 281.906 60.808 281.906 63.808V69.676C281.906 72.652 282.374 74.8 283.31 76.12C284.246 77.44 285.674 78.1 287.594 78.1C288.386 78.1 289.118 77.956 289.79 77.668C290.486 77.38 291.062 76.888 291.518 76.192C291.998 75.472 292.298 74.464 292.418 73.168L295.01 73.852C294.674 75.196 294.134 76.276 293.39 77.092C292.646 77.908 291.77 78.496 290.762 78.856C289.778 79.192 288.722 79.36 287.594 79.36ZM308.679 79.36C306.471 79.36 304.599 78.892 303.063 77.956C301.527 76.996 300.363 75.652 299.571 73.924C298.779 72.196 298.383 70.18 298.383 67.876V65.608C298.383 63.304 298.731 61.3 299.427 59.596C300.147 57.868 301.215 56.536 302.631 55.6C304.047 54.64 305.823 54.16 307.959 54.16C309.783 54.16 311.307 54.52 312.531 55.24C313.755 55.936 314.655 56.872 315.231 58.048C315.831 59.2 316.083 60.46 315.987 61.828L311.775 62.872C312.015 60.472 311.763 58.636 311.019 57.364C310.299 56.068 309.219 55.42 307.779 55.42C306.243 55.42 305.055 56.068 304.215 57.364C303.399 58.66 302.991 60.808 302.991 63.808V69.676C302.991 72.652 303.459 74.8 304.395 76.12C305.331 77.44 306.759 78.1 308.679 78.1C309.471 78.1 310.203 77.956 310.875 77.668C311.571 77.38 312.147 76.888 312.603 76.192C313.083 75.472 313.383 74.464 313.503 73.168L316.095 73.852C315.759 75.196 315.219 76.276 314.475 77.092C313.731 77.908 312.855 78.496 311.847 78.856C310.863 79.192 309.807 79.36 308.679 79.36ZM318.639 55.528V54.52H328.503V55.528L326.523 55.78C326.139 55.828 325.911 55.936 325.839 56.104C325.767 56.248 325.731 56.728 325.731 57.544V75.976C325.731 76.792 325.767 77.284 325.839 77.452C325.911 77.596 326.139 77.692 326.523 77.74L328.503 77.992V79H318.639V77.992L320.619 77.74C321.003 77.692 321.231 77.596 321.303 77.452C321.375 77.284 321.411 76.792 321.411 75.976V57.544C321.411 56.728 321.375 56.248 321.303 56.104C321.231 55.936 321.003 55.828 320.619 55.78L318.639 55.528Z" fill="#1E1E1E"/>
</svg>
